<?xml version="1.0" encoding="utf-8"?>
<!-- Generator: Adobe Illustrator 16.0.0, SVG Export Plug-In . SVG Version: 6.00 Build 0)  -->
<!DOCTYPE svg PUBLIC "-//W3C//DTD SVG 1.1//EN" "http://www.w3.org/Graphics/SVG/1.1/DTD/svg11.dtd">
<svg version="1.1" id="Capa_1" xmlns="http://www.w3.org/2000/svg" xmlns:xlink="http://www.w3.org/1999/xlink" x="0px" y="0px"
	 width="200.215px" height="32.628px" viewBox="0 0 200.215 32.628" enable-background="new 0 0 200.215 32.628"
	 xml:space="preserve">
<g opacity="0.5">
	<g>
		<path fill="#5D5D5D" d="M40.18,14.943l-1.645-0.338l5.709-11.432l5.674,11.415l-1.709,0.354l-1.805-3.756h-4.402L40.18,14.943z
			 M42.68,9.704h3.047L44.211,6.56L42.68,9.704z"/>
		<path fill="#5D5D5D" d="M55.094,8.463c-0.209-0.226-0.773-0.807-1.676-0.807c-0.791,0-1.211,0.451-1.211,0.951
			c0,0.677,0.533,0.951,1.018,1.129c1.225,0.436,2.918,0.709,2.918,2.628c0,1.354-0.984,2.579-2.967,2.579
			c-0.564,0-1.758-0.112-2.742-1.273l0.92-1.064c0.291,0.371,0.902,0.951,1.871,0.951c0.869,0,1.402-0.516,1.402-1.112
			c0-0.741-0.678-0.983-1.162-1.128c-1.58-0.483-2.773-0.968-2.773-2.596c0-1.113,0.807-2.451,2.662-2.451
			c0.918,0,1.918,0.323,2.66,1.193L55.094,8.463z"/>
		<path fill="#5D5D5D" d="M61.85,6.27c2.451,0,4.418,1.935,4.418,4.337s-1.967,4.337-4.418,4.337s-4.418-1.935-4.418-4.337
			S59.398,6.27,61.85,6.27z M61.85,13.557c1.611,0,2.902-1.321,2.902-2.95c0-1.645-1.307-2.95-2.902-2.95s-2.902,1.306-2.902,2.95
			C58.947,12.235,60.236,13.557,61.85,13.557z"/>
		<path fill="#5D5D5D" d="M74.021,8.479c-0.678-0.677-1.467-0.822-1.998-0.822c-1.678,0-2.887,1.161-2.887,2.95
			c0,1.79,1.209,2.95,2.887,2.95c0.531,0,1.32-0.145,1.998-0.821l0.822,1.145c-0.693,0.597-1.629,1.063-2.838,1.063
			c-2.385,0-4.385-1.628-4.385-4.337s2-4.337,4.385-4.337c1.209,0,2.145,0.468,2.838,1.064L74.021,8.479z"/>
		<polygon fill="#5D5D5D" points="76.697,6.527 78.213,6.334 78.213,14.589 76.697,14.782 		"/>
		<path fill="#5D5D5D" d="M85.309,13.863H85.26c-0.678,0.952-1.629,1.048-2.16,1.048c-2.049,0-3.031-1.482-3.031-2.869
			c0-1.645,1.209-2.87,3.031-2.87c0.611,0,1.369,0.161,2.031,0.79h0.031V9.123c0-1.289-1.129-1.467-1.725-1.467
			c-0.871,0-1.645,0.258-2.096,0.436L80.891,8.27l0.467-1.629c1.209-0.322,1.982-0.371,2.338-0.371c2.918,0,2.982,2.273,2.982,2.773
			v5.546l-1.369,0.193V13.863z M81.584,11.961c0,0.822,0.58,1.645,1.789,1.645c1.273,0,1.822-0.854,1.822-1.58
			s-0.549-1.612-1.871-1.612C82.229,10.413,81.584,11.106,81.584,11.961z"/>
		<path fill="#5D5D5D" d="M94.916,8.479c-0.676-0.677-1.467-0.822-1.998-0.822c-1.678,0-2.887,1.161-2.887,2.95
			c0,1.79,1.209,2.95,2.887,2.95c0.531,0,1.322-0.145,1.998-0.821l0.824,1.145c-0.695,0.597-1.629,1.063-2.838,1.063
			c-2.387,0-4.387-1.628-4.387-4.337s2-4.337,4.387-4.337c1.209,0,2.143,0.468,2.838,1.064L94.916,8.479z"/>
		<polygon fill="#5D5D5D" points="97.594,6.527 99.109,6.334 99.109,14.589 97.594,14.782 		"/>
		<path fill="#5D5D5D" d="M105.316,6.27c2.451,0,4.418,1.935,4.418,4.337s-1.967,4.337-4.418,4.337s-4.418-1.935-4.418-4.337
			S102.865,6.27,105.316,6.27z M105.316,13.557c1.611,0,2.902-1.321,2.902-2.95c0-1.645-1.307-2.95-2.902-2.95
			c-1.598,0-2.902,1.306-2.902,2.95C102.414,12.235,103.703,13.557,105.316,13.557z"/>
		<path fill="#5D5D5D" d="M111.475,6.527l1.436-0.193v1.273c0.291-0.468,1-1.338,2.482-1.338c1.678,0,2.725,1.145,2.725,2.838v5.481
			l-1.516,0.193V9.333c0-1.129-0.629-1.677-1.547-1.677c-1.129,0-2.064,0.839-2.064,2.402v4.53l-1.516,0.193V6.527z"/>
		<path fill="#5D5D5D" d="M126.662,8.044l-1.209,6.916l-1.66-0.258l2.24-11.496l3.982,8.416l3.885-8.399l2.258,11.463l-1.645,0.274
			l-1.256-6.916l-3.275,7.045L126.662,8.044z"/>
		<path fill="#5D5D5D" d="M144.236,14.589l-1.436,0.193v-1.177c-0.291,0.468-0.998,1.338-2.482,1.338
			c-1.678,0-2.725-1.145-2.725-2.837V6.527l1.516-0.193v5.546c0,1.129,0.629,1.677,1.547,1.677c1.129,0,2.064-0.838,2.064-2.402
			V6.527l1.516-0.193V14.589z"/>
		<path fill="#5D5D5D" d="M148.332,4.125v2.402h2.031v1.387h-2.031v4.24c0,0.645,0.193,1.402,1.467,1.402
			c0.273,0,0.531-0.048,0.789-0.128l-0.273,1.419c-0.291,0.063-0.596,0.096-0.887,0.096c-1.145,0-2.611-0.483-2.611-2.547V7.914
			h-1.193l0.371-1.387h0.822v-1.66L148.332,4.125z"/>
		<path fill="#5D5D5D" d="M158.504,14.589l-1.434,0.193v-1.177c-0.291,0.468-1,1.338-2.484,1.338c-1.676,0-2.725-1.145-2.725-2.837
			V6.527l1.516-0.193v5.546c0,1.129,0.629,1.677,1.549,1.677c1.129,0,2.064-0.838,2.064-2.402V6.527l1.514-0.193V14.589z"/>
		<path fill="#5D5D5D" d="M165.551,13.863h-0.049c-0.678,0.952-1.629,1.048-2.16,1.048c-2.047,0-3.031-1.482-3.031-2.869
			c0-1.645,1.209-2.87,3.031-2.87c0.613,0,1.371,0.161,2.031,0.79h0.033V9.123c0-1.289-1.131-1.467-1.727-1.467
			c-0.869,0-1.645,0.258-2.096,0.436l-0.451,0.178l0.467-1.629c1.211-0.322,1.982-0.371,2.338-0.371
			c2.918,0,2.982,2.273,2.982,2.773v5.546l-1.369,0.193V13.863z M161.826,11.961c0,0.822,0.58,1.645,1.789,1.645
			c1.273,0,1.822-0.854,1.822-1.58s-0.549-1.612-1.871-1.612C162.471,10.413,161.826,11.106,161.826,11.961z"/>
		<path fill="#5D5D5D" d="M169.146,3.367l1.516-0.193v11.415l-1.516,0.193V3.367z"/>
		<path fill="#5D5D5D" d="M47.838,18.238v11.398l-1.434,0.193v-1.37c-0.42,0.581-1.322,1.532-3.047,1.532
			c-2.34,0-4.176-1.773-4.176-4.386c0-2.645,1.934-4.289,4.158-4.289c1.387,0,2.338,0.613,2.982,1.339v-4.225L47.838,18.238z
			 M46.322,25.623c0-1.693-1.338-2.919-2.771-2.919c-1.629,0-2.855,1.29-2.855,2.919c0,1.725,1.258,2.981,2.855,2.981
			C45.082,28.604,46.322,27.364,46.322,25.623z"/>
		<path fill="#5D5D5D" d="M51.58,27.218c0.547,1.017,1.547,1.323,2.24,1.323c1.113,0,2.258-0.63,3.031-1.419l0.387,1.628
			c-0.984,0.806-2.145,1.242-3.322,1.242c-2.771,0-4.336-2.177-4.336-4.386c0-2.467,1.887-4.289,4.176-4.289
			c1.564,0,2.854,0.871,3.563,2.241L51.58,27.218z M55.191,23.301c-0.275-0.29-0.693-0.531-1.42-0.531
			c-1.693,0-2.676,1.321-2.676,2.771c0,0.113,0.016,0.227,0.031,0.339L55.191,23.301z"/>
		<path fill="#5D5D5D" d="M66.188,18.674c2.885,0,4.078,1.95,4.078,3.66c0,1.837-1.387,3.659-4.209,3.659c-0.24,0-0.5,0-0.74-0.032
			v3.676l-1.709,0.193V18.674H66.188z M65.316,24.381c0.193,0.016,0.369,0.033,0.563,0.033c2.049,0,2.678-1.129,2.678-2.097
			c0-0.951-0.662-2.064-2.369-2.064h-0.871V24.381z"/>
		<path fill="#5D5D5D" d="M72.104,29.83v-8.255l1.418-0.192v1.692h0.033c0.645-1.58,2.031-1.758,2.934-1.758h0.34l-0.613,1.612
			c-0.129-0.016-0.258-0.032-0.387-0.032c-1.064,0-2.209,0.854-2.209,2.982v3.757L72.104,29.83z"/>
		<path fill="#5D5D5D" d="M81.955,21.317c2.449,0,4.416,1.936,4.416,4.337c0,2.402-1.967,4.338-4.416,4.338
			c-2.451,0-4.418-1.936-4.418-4.338C77.537,23.253,79.504,21.317,81.955,21.317z M81.955,28.604c1.611,0,2.9-1.321,2.9-2.95
			c0-1.645-1.305-2.95-2.9-2.95c-1.598,0-2.904,1.306-2.904,2.95C79.051,27.283,80.342,28.604,81.955,28.604z"/>
		<path fill="#5D5D5D" d="M89.982,19.173v2.402h2.031v1.387h-2.031v4.24c0,0.646,0.195,1.402,1.469,1.402
			c0.273,0,0.531-0.048,0.789-0.129l-0.273,1.419c-0.291,0.065-0.596,0.098-0.887,0.098c-1.145,0-2.613-0.483-2.613-2.548v-4.482
			h-1.191l0.369-1.387h0.822v-1.661L89.982,19.173z"/>
		<path fill="#5D5D5D" d="M95.029,27.218c0.549,1.017,1.549,1.323,2.242,1.323c1.111,0,2.256-0.63,3.031-1.419l0.387,1.628
			c-0.984,0.806-2.145,1.242-3.322,1.242c-2.773,0-4.336-2.177-4.336-4.386c0-2.467,1.885-4.289,4.176-4.289
			c1.563,0,2.854,0.871,3.563,2.241L95.029,27.218z M98.641,23.301c-0.273-0.29-0.693-0.531-1.418-0.531
			c-1.693,0-2.676,1.321-2.676,2.771c0,0.113,0.016,0.227,0.031,0.339L98.641,23.301z"/>
		<path fill="#5D5D5D" d="M108.621,23.526c-0.678-0.677-1.467-0.822-1.998-0.822c-1.678,0-2.887,1.161-2.887,2.95
			c0,1.79,1.209,2.95,2.887,2.95c0.531,0,1.32-0.145,1.998-0.821l0.822,1.145c-0.693,0.597-1.629,1.064-2.838,1.064
			c-2.387,0-4.385-1.629-4.385-4.338s1.998-4.337,4.385-4.337c1.209,0,2.145,0.468,2.838,1.064L108.621,23.526z"/>
		<path fill="#5D5D5D" d="M117.295,23.526c-0.676-0.677-1.467-0.822-1.998-0.822c-1.678,0-2.887,1.161-2.887,2.95
			c0,1.79,1.209,2.95,2.887,2.95c0.531,0,1.322-0.145,1.998-0.821l0.822,1.145c-0.693,0.597-1.629,1.064-2.838,1.064
			c-2.385,0-4.385-1.629-4.385-4.338s2-4.337,4.385-4.337c1.209,0,2.145,0.468,2.838,1.064L117.295,23.526z"/>
		<polygon fill="#5D5D5D" points="119.973,21.575 121.486,21.383 121.486,29.637 119.973,29.83 		"/>
		<path fill="#5D5D5D" d="M127.695,21.317c2.449,0,4.416,1.936,4.416,4.337c0,2.402-1.967,4.338-4.416,4.338
			c-2.451,0-4.418-1.936-4.418-4.338C123.277,23.253,125.244,21.317,127.695,21.317z M127.695,28.604c1.611,0,2.9-1.321,2.9-2.95
			c0-1.645-1.305-2.95-2.9-2.95c-1.598,0-2.902,1.306-2.902,2.95C124.793,27.283,126.082,28.604,127.695,28.604z"/>
		<path fill="#5D5D5D" d="M133.854,21.575l1.436-0.192v1.273c0.289-0.468,0.998-1.339,2.482-1.339c1.676,0,2.725,1.145,2.725,2.838
			v5.481l-1.516,0.193v-5.449c0-1.128-0.629-1.677-1.547-1.677c-1.129,0-2.064,0.838-2.064,2.402v4.53l-1.516,0.193V21.575z"/>
		<path fill="#5D5D5D" d="M152.555,18.674l0.355,1.579h-4.031v3.145h3.064v1.58h-3.064v4.659l-1.707,0.193V18.674H152.555z"/>
		<path fill="#5D5D5D" d="M158.813,28.912h-0.049c-0.678,0.951-1.629,1.048-2.162,1.048c-2.047,0-3.029-1.484-3.029-2.87
			c0-1.645,1.209-2.87,3.029-2.87c0.613,0,1.371,0.161,2.033,0.79h0.031v-0.839c0-1.289-1.129-1.467-1.725-1.467
			c-0.871,0-1.645,0.258-2.096,0.436l-0.453,0.177l0.469-1.628c1.209-0.322,1.982-0.371,2.338-0.371
			c2.918,0,2.982,2.273,2.982,2.773v5.546l-1.369,0.193V28.912z M155.086,27.01c0,0.821,0.582,1.644,1.791,1.644
			c1.273,0,1.822-0.854,1.822-1.58s-0.549-1.612-1.871-1.612C155.732,25.461,155.086,26.154,155.086,27.01z"/>
		<path fill="#5D5D5D" d="M162.406,21.575l1.42-0.192v1.289c0.467-0.821,1.273-1.354,2.305-1.354c0.516,0,1.629,0.146,2.193,1.258
			c0.789-1.129,1.885-1.258,2.418-1.258c1.758,0,2.756,1.193,2.756,2.645v5.675l-1.514,0.193v-5.529
			c0-1.419-0.984-1.597-1.533-1.597c-0.838,0-1.74,0.549-1.74,2.16v4.772l-1.516,0.193v-5.449c0-0.435-0.016-1.677-1.436-1.677
			c-1.24,0-1.838,1.064-1.838,2.128v4.805l-1.516,0.193V21.575z"/>
		<polygon fill="#5D5D5D" points="175.74,21.575 177.256,21.383 177.256,29.637 175.74,29.83 		"/>
		<path fill="#5D5D5D" d="M179.529,18.416l1.516-0.193v11.414l-1.516,0.193V18.416z"/>
		<polygon fill="#5D5D5D" points="183.285,21.575 184.801,21.383 184.801,29.637 183.285,29.83 		"/>
		<path fill="#5D5D5D" d="M191.895,28.912h-0.047c-0.678,0.951-1.629,1.048-2.162,1.048c-2.047,0-3.029-1.484-3.029-2.87
			c0-1.645,1.209-2.87,3.029-2.87c0.613,0,1.371,0.161,2.033,0.79h0.031v-0.839c0-1.289-1.129-1.467-1.725-1.467
			c-0.871,0-1.645,0.258-2.098,0.436l-0.451,0.177l0.469-1.628c1.209-0.322,1.982-0.371,2.338-0.371
			c2.918,0,2.982,2.273,2.982,2.773v5.546l-1.371,0.193V28.912z M188.17,27.01c0,0.821,0.58,1.644,1.791,1.644
			c1.273,0,1.822-0.854,1.822-1.58s-0.549-1.612-1.871-1.612C188.816,25.461,188.17,26.154,188.17,27.01z"/>
		<path fill="#5D5D5D" d="M195.49,29.83v-8.255l1.42-0.192v1.692h0.031c0.645-1.58,2.031-1.758,2.934-1.758h0.34l-0.613,1.612
			c-0.129-0.016-0.258-0.032-0.387-0.032c-1.064,0-2.209,0.854-2.209,2.982v3.757L195.49,29.83z"/>
		<polygon fill="#5D5D5D" points="108.684,2.007 107.375,2.007 105.627,4.898 106.486,4.898 		"/>
		<polygon fill="#5D5D5D" points="130.484,16.985 129.176,16.985 127.428,19.876 128.287,19.876 		"/>
		<circle fill="#5D5D5D" cx="77.456" cy="4.475" r="0.79"/>
		<circle fill="#5D5D5D" cx="98.343" cy="4.475" r="0.79"/>
		<circle fill="#5D5D5D" cx="120.747" cy="19.516" r="0.79"/>
		<circle fill="#5D5D5D" cx="176.498" cy="19.516" r="0.791"/>
		<circle fill="#5D5D5D" cx="184.054" cy="19.516" r="0.79"/>
	</g>
	<g>
		<path fill="#5D5D5D" d="M12.795,22.475c-0.096-0.191,0.385-0.288,0.193-0.351c-0.162-0.064-0.289-0.225-0.385-0.386
			c-0.033-0.095-0.066-0.192-0.066-0.32c0-0.289,0.033-0.546,0.066-0.802c0.064-0.288,0.127-0.577,0.127-0.865
			c0-1.091,0.033-1.732-0.096-2.823c0,0.161,0,0.32-0.031,0.449c-0.066,0.642-0.291,1.155-0.578,1.924
			c-0.291,0.771-0.16,1.348-0.129,2.182c0.033,0.48-0.096,0.801-0.096,1.282c0,0.353-0.098,0.674,0.191,0.866
			c0.225,0.129,0.418-0.097,0.611-0.289c0.084-0.071,0.1-0.09,0.184-0.137c0.221-0.13,0.424-0.184,0.584-0.44
			c0.096-0.127,0.066-0.192,0.066-0.353C13.242,22.444,12.955,22.412,12.795,22.475z M16.818,13.979
			c0.061-0.524-0.73-0.339-0.916-0.484c-0.086-0.067-0.23-0.383-0.34-0.595c-0.375-0.723-0.58-1.536-0.775-2.287
			c-0.162-0.617-0.33-0.787-0.561-1.375c-0.104-0.269-0.193-0.482-0.418-0.675c-0.223-0.225-0.641-0.256-0.641-0.577
			c0.031-0.545,0.641-0.705,0.641-1.251c0-0.48-0.371-1.017-1.121-0.802c-0.492,0.192-0.609,0.642-0.674,1.155
			c-0.033,0.416,0.16,0.962-0.225,1.058c-0.576,0.098-1.09,0.257-1.443,0.706C9.928,9.365,9.834,9.974,9.449,10.52
			c-0.674,0.866-0.516,1.412-0.932,2.405c-0.354,0.867,0.031,2.31,0.994,1.895c-0.129-0.482-0.354-0.611-0.482-0.996
			c-0.254-0.802,0.482-1.25,0.771-1.988c0.16-0.417,0.096-0.738,0.354-1.122c1.121,1.058-0.064,2.598,0.705,3.912
			c0.287,0.48,0.063,0.866,0.063,1.413c-0.031,1.024-0.254,1.602-0.545,2.564c-0.127,0.513-0.449,0.706-0.576,1.219
			c-0.225,1.026-0.191,1.668-0.643,2.598c-0.32,0.674-0.576,2.277,0.064,1.86c0.322-0.161,1.252,0.32,2.215,0.481
			c0-0.321-1.221-0.93-1.221-1.316c0.033-0.769,0.385-1.058,0.514-1.795c0.129-0.705,0.289-1.186,0.482-1.894
			c0.191-0.769,0.641-1.12,0.768-1.892c0.162-1.09,0.482-1.796,0.707-2.726c0.064-0.257,0.129-0.514,0.191-0.802
			c0.258-1.443-0.197-2.598,0.316-4.01c0.502,1.822,1.781,2.747,2.146,3.349c0,0,0.15,0.324,0.695,0.27
			C16.238,13.947,16.771,14.374,16.818,13.979z"/>
		<path fill="#5D5D5D" d="M24.875,23.671l0.006,0.004C24.893,23.662,24.891,23.662,24.875,23.671z M15.232,16.43
			c0.115,0.432,0.189,0.835,0.025,1.44c-0.289,1.25-0.031,2.244-0.289,3.622c-0.16,0.804,0.07,1.348-0.057,2.149
			c-0.129,0.706-0.283,1.296,0.379,1.188c0.348-0.091,0.107-0.826,0.121-1.366c0.016-0.644,0.039-1.781,0.23-2.705
			c0.127-0.608,0.25-0.867,0.475-1.444c0.689,1.054,0.551,1.75,0.551,2.905c0,0.546-0.1,1.103,0.076,1.467
			c0.119,0.298,0.588,0.222,0.736-0.064c0.246-0.472-0.01-0.268-0.139-0.588c-0.447-0.963-0.096-1.957-0.16-3.113
			c-0.064-1.28-0.287-2.146-0.287-3.43c0.287-0.321,0.703,0.608,1.123,0.513c0.225-0.063,0.191-0.257,0.416-0.354
			c0.578-0.192,0.449-0.961,0.418-1.634c-0.098-1.283-0.418-2.364,0.127-3.625c1.314,0.641,0.609,3.047,0.416,4.843
			c-0.16,1.956-0.576,3.111-0.48,4.972c0.611,0,1.283-0.449,1.508,0.447c0.158,0.675,0.354,1.124,0.193,1.83
			c-0.227,0.096-0.514,0-0.578,0.257c-0.033,0.159,0.225,0.224,0.385,0.32c0.256,0.192,0.482,0.16,0.77,0.16v-3.144
			c0.48,0,1.059-0.416,1.41-0.128c0.48,0.448,0.77,1.41,0.322,1.828c-0.289,0.257,0.641,0.289,0.896,0.706
			c0.363,0.637,0.963,0.243,1.055,0.188l-0.539-0.542c-0.645-0.449-1.061-2.404-0.645-2.469c0,0-0.096-1.026-0.287-1.443
			c-0.258-0.577-0.225-0.61-0.387-1.188c-0.256-1.121-0.23-1.726-0.479-2.918c-0.129-0.577-0.154-0.901-0.436-1.528
			c-0.426-0.818-0.912-0.75-0.945-1.454c0-0.321,0.246-0.376,0.342-0.665c0.098-0.407-0.125-0.682,0.002-1.003
			c0.93,0.642,1.389,1.314,2.543,1.441c0.514,0.033,0.547,0.613,1.059,0.611c0.207-0.01,0.34-0.041,0.289-0.257
			c-0.096-0.384-0.416-0.578-0.801-0.706c-0.643-0.225-0.996-0.097-1.477-0.545c-0.32-0.288-0.576-0.449-0.803-0.802
			c-0.512-0.803-1.346-1.348-2.309-1.444c-0.027-0.282,0.318-0.766-0.096-1.538c-0.191-0.354-0.363-0.351-0.746-0.318
			c-0.41,0.059-0.697,0.445-0.666,0.831c0.057,0.564,0.635,0.898,0.766,1.176c0.031,0.069-0.063,0.237-0.17,0.386
			c-0.457,0.636-0.85,0.202-0.979,1.133c-0.096,0.737,0.031,1.218,0.063,2.021c0,0.481-0.158,0.737-0.129,1.22
			c0.129,1.09,0.449,1.57,0.225,2.628c-0.383,0.033-0.479,0.033-0.703-0.19c-0.234-0.304-0.1-0.619-0.338-0.737
			c-0.67-0.226-0.662-0.279-0.662-0.279c0.006-0.076,0.066-0.109,0.162-0.154c0.289-0.113,0.301-0.763,0.119-1.001
			c-0.273-0.363-0.854-0.287-1.029,0.118c-0.176,0.404,0.047,0.706,0.047,0.706c-0.141,0.397-0.553,0.176-0.758,0.508
			C14.928,15.559,15.232,16.43,15.232,16.43z"/>
		<path fill="none" d="M16.328,4.265c-6.641,0-12.033,5.393-12.033,12.065c0,6.641,5.393,12.033,12.033,12.033
			s12.033-5.393,12.033-12.033C28.361,9.657,22.969,4.265,16.328,4.265z"/>
		<path fill="#5D5D5D" d="M16.346,0.807c-8.568,0-15.539,6.971-15.539,15.538s6.971,15.537,15.539,15.537
			c8.566,0,15.537-6.97,15.537-15.537S24.912,0.807,16.346,0.807z M16.328,28.363c-6.641,0-12.033-5.393-12.033-12.033
			c0-6.673,5.393-12.065,12.033-12.065S28.361,9.657,28.361,16.33C28.361,22.971,22.969,28.363,16.328,28.363z"/>
		<path fill="#5D5D5D" d="M16.328,0C7.311,0,0,7.312,0,16.33c0,9.017,7.311,16.298,16.328,16.298s16.33-7.281,16.33-16.298
			C32.658,7.312,25.346,0,16.328,0z M16.346,32.182c-8.732,0-15.838-7.104-15.838-15.837S7.613,0.508,16.346,0.508
			s15.836,7.104,15.836,15.837S25.078,32.182,16.346,32.182z"/>
	</g>
</g>
</svg>
